<svg width="229" height="48" viewBox="0 0 229 48" fill="none" xmlns="http://www.w3.org/2000/svg">
<path d="M72.12 37L66.864 27.46H65.388V37H59.232V11.728H69.564C71.556 11.728 73.248 12.076 74.64 12.772C76.056 13.468 77.112 14.428 77.808 15.652C78.504 16.852 78.852 18.196 78.852 19.684C78.852 21.364 78.372 22.864 77.412 24.184C76.476 25.504 75.084 26.44 73.236 26.992L79.068 37H72.12ZM65.388 23.104H69.204C70.332 23.104 71.172 22.828 71.724 22.276C72.3 21.724 72.588 20.944 72.588 19.936C72.588 18.976 72.3 18.22 71.724 17.668C71.172 17.116 70.332 16.84 69.204 16.84H65.388V23.104Z" fill="#22242C"/>
<path d="M88.8724 16.66V21.772H97.1164V26.524H88.8724V32.068H98.1964V37H82.7164V11.728H98.1964V16.66H88.8724Z" fill="#22242C"/>
<path d="M111.661 11.728C114.325 11.728 116.653 12.256 118.645 13.312C120.637 14.368 122.173 15.856 123.253 17.776C124.357 19.672 124.909 21.868 124.909 24.364C124.909 26.836 124.357 29.032 123.253 30.952C122.173 32.872 120.625 34.36 118.609 35.416C116.617 36.472 114.301 37 111.661 37H102.193V11.728H111.661ZM111.265 31.672C113.593 31.672 115.405 31.036 116.701 29.764C117.997 28.492 118.645 26.692 118.645 24.364C118.645 22.036 117.997 20.224 116.701 18.928C115.405 17.632 113.593 16.984 111.265 16.984H108.349V31.672H111.265Z" fill="#22242C"/>
<path d="M151.278 24.04C152.742 24.352 153.918 25.084 154.806 26.236C155.694 27.364 156.138 28.66 156.138 30.124C156.138 32.236 155.394 33.916 153.906 35.164C152.442 36.388 150.39 37 147.75 37H135.978V11.728H147.354C149.922 11.728 151.926 12.316 153.366 13.492C154.83 14.668 155.562 16.264 155.562 18.28C155.562 19.768 155.166 21.004 154.374 21.988C153.606 22.972 152.574 23.656 151.278 24.04ZM142.134 21.952H146.166C147.174 21.952 147.942 21.736 148.47 21.304C149.022 20.848 149.298 20.188 149.298 19.324C149.298 18.46 149.022 17.8 148.47 17.344C147.942 16.888 147.174 16.66 146.166 16.66H142.134V21.952ZM146.67 32.032C147.702 32.032 148.494 31.804 149.046 31.348C149.622 30.868 149.91 30.184 149.91 29.296C149.91 28.408 149.61 27.712 149.01 27.208C148.434 26.704 147.63 26.452 146.598 26.452H142.134V32.032H146.67Z" fill="#22242C"/>
<path d="M158.485 26.92C158.485 24.856 158.869 23.044 159.637 21.484C160.429 19.924 161.497 18.724 162.841 17.884C164.185 17.044 165.685 16.624 167.341 16.624C168.757 16.624 169.993 16.912 171.049 17.488C172.129 18.064 172.957 18.82 173.533 19.756V16.912H179.689V37H173.533V34.156C172.933 35.092 172.093 35.848 171.013 36.424C169.957 37 168.721 37.288 167.305 37.288C165.673 37.288 164.185 36.868 162.841 36.028C161.497 35.164 160.429 33.952 159.637 32.392C158.869 30.808 158.485 28.984 158.485 26.92ZM173.533 26.956C173.533 25.42 173.101 24.208 172.237 23.32C171.397 22.432 170.365 21.988 169.141 21.988C167.917 21.988 166.873 22.432 166.009 23.32C165.169 24.184 164.749 25.384 164.749 26.92C164.749 28.456 165.169 29.68 166.009 30.592C166.873 31.48 167.917 31.924 169.141 31.924C170.365 31.924 171.397 31.48 172.237 30.592C173.101 29.704 173.533 28.492 173.533 26.956Z" fill="#22242C"/>
<path d="M196.382 16.696C198.734 16.696 200.606 17.464 201.998 19C203.414 20.512 204.122 22.6 204.122 25.264V37H198.002V26.092C198.002 24.748 197.654 23.704 196.958 22.96C196.262 22.216 195.326 21.844 194.15 21.844C192.974 21.844 192.038 22.216 191.342 22.96C190.646 23.704 190.298 24.748 190.298 26.092V37H184.142V16.912H190.298V19.576C190.922 18.688 191.762 17.992 192.818 17.488C193.874 16.96 195.062 16.696 196.382 16.696Z" fill="#22242C"/>
<path d="M220.676 37L214.556 28.576V37H208.4V10.36H214.556V25.084L220.64 16.912H228.236L219.884 26.992L228.308 37H220.676Z" fill="#22242C"/>
<g clip-path="url(#clip0_107_390)">
<path d="M46.7369 41.6842C46.7369 44.4745 44.4746 46.7368 41.6842 46.7368H6.31581C3.5255 46.7368 1.26318 44.4745 1.26318 41.6842V6.31577C1.26318 3.52545 3.5255 1.26313 6.31581 1.26313H41.6842C44.4746 1.26313 46.7369 3.52545 46.7369 6.31577V41.6842Z" fill="#6160DC"/>
<path d="M27.8 38L21.96 27.4H20.32V38H13.48V9.92H24.96C27.1733 9.92 29.0533 10.3067 30.6 11.08C32.1733 11.8533 33.3467 12.92 34.12 14.28C34.8933 15.6133 35.28 17.1067 35.28 18.76C35.28 20.6267 34.7467 22.2933 33.68 23.76C32.64 25.2267 31.0933 26.2667 29.04 26.88L35.52 38H27.8ZM20.32 22.56H24.56C25.8133 22.56 26.7467 22.2533 27.36 21.64C28 21.0267 28.32 20.16 28.32 19.04C28.32 17.9733 28 17.1333 27.36 16.52C26.7467 15.9067 25.8133 15.6 24.56 15.6H20.32V22.56Z" fill="white"/>
</g>
<defs>
<clipPath id="clip0_107_390">
<rect width="48" height="48" fill="white"/>
</clipPath>
</defs>
</svg>
